HIERARCHY
ROOT Hips
{
	OFFSET 0.00000 0.00000 0.00000
	CHANNELS 6 Xposition Yposition Zposition Zrotation Yrotation Xrotation 
	JOINT LHipJoint
	{
		OFFSET 0 0 0
		CHANNELS 3 Zrotation Yrotation Xrotation
		JOINT LeftHip
		{
			OFFSET 1.62964 -1.40469 0.78906
			CHANNELS 3 Zrotation Yrotation Xrotation
			JOINT LeftKnee
			{
				OFFSET 2.29640 -6.30932 0.00000
				CHANNELS 3 Zrotation Yrotation Xrotation
				JOINT LeftAnkle
				{
					OFFSET 2.29451 -6.30412 0.00000
					CHANNELS 3 Zrotation Yrotation Xrotation
					JOINT LeftToe
					{
						OFFSET 0.03611 -0.09921 1.56387
						CHANNELS 3 Zrotation Yrotation Xrotation
						End Site
						{
							OFFSET 0.00000 -0.00000 0.80291
						}
					}
				}
			}
		}
	}
	JOINT RHipJoint
	{
		OFFSET 0 0 0
		CHANNELS 3 Zrotation Yrotation Xrotation
		JOINT RightHip
		{
			OFFSET -1.73712 -1.40469 0.78906
			CHANNELS 3 Zrotation Yrotation Xrotation
			JOINT RightKnee
			{
				OFFSET -2.28137 -6.26801 0.00000
				CHANNELS 3 Zrotation Yrotation Xrotation
				JOINT RightAnkle
				{
					OFFSET -2.28681 -6.28298 0.00000
					CHANNELS 3 Zrotation Yrotation Xrotation
					JOINT RightToe
					{
						OFFSET -0.15927 -0.43759 1.61103
						CHANNELS 3 Zrotation Yrotation Xrotation
						End Site
						{
							OFFSET -0.00000 -0.00000 0.84630
						}
					}
				}
			}
		}
	}
	JOINT lowerback
	{
		OFFSET 0 0 0
		CHANNELS 3 Zrotation Yrotation Xrotation
		JOINT Chest
		{
			OFFSET -0.04227 2.04338 -0.00225
			CHANNELS 3 Zrotation Yrotation Xrotation
			JOINT Chest2
			{
				OFFSET -0.02148 2.04482 -0.04273
				CHANNELS 3 Zrotation Yrotation Xrotation
				JOINT lowerneck
				{
					OFFSET 0 0 0
					CHANNELS 3 Zrotation Yrotation Xrotation
					JOINT Neck
					{
						OFFSET 0.09180 1.44629 0.19359
						CHANNELS 3 Zrotation Yrotation Xrotation
						JOINT Head
						{
							OFFSET 0.00887 1.40645 0.14750
							CHANNELS 3 Zrotation Yrotation Xrotation
							End Site
							{
								OFFSET -0.00669 1.50671 0.03707
							}
						}
					}
				}
				JOINT LeftCollar
				{
					OFFSET 0 0 0
					CHANNELS 3 Zrotation Yrotation Xrotation
					JOINT LeftShoulder
					{
						OFFSET 2.17674 1.86763 -0.06520
CHANNELS 3 Zrotation Xrotation Yrotation
						JOINT LeftElbow
						{
OFFSET 0 -4.657760 0.000000
CHANNELS 3 Zrotation Xrotation Yrotation
							JOINT LeftWrist
							{
OFFSET 0 -3.555390 0.000000
CHANNELS 3 Zrotation Xrotation Yrotation
								JOINT lhand
								{
									OFFSET 0 0 0
CHANNELS 3 Zrotation Xrotation Yrotation
									JOINT LFingers
									{
OFFSET 0 -0.707260 0.000000
CHANNELS 3 Zrotation Xrotation Yrotation
										End Site
										{
OFFSET 0 -0.570220 0.000000
										}
									}
								}
								JOINT LThumb
								{
OFFSET 0 0.000000 0.000000
CHANNELS 3 Zrotation Xrotation Yrotation
									End Site
									{
OFFSET 0 -0.578920 0.578920
									}
								}
							}
						}
					}
				}
				JOINT RightCollar
				{
					OFFSET 0 0 0
					CHANNELS 3 Zrotation Yrotation Xrotation
					JOINT RightShoulder
					{
						OFFSET -2.80694 1.55459 -0.32496
CHANNELS 3 Zrotation Xrotation Yrotation
						JOINT RightElbow
						{
OFFSET 0 -4.719250 -0.000000
CHANNELS 3 Zrotation Xrotation Yrotation
							JOINT RightWrist
							{
OFFSET 0 -3.569900 0.000000
CHANNELS 3 Zrotation Xrotation Yrotation
								JOINT rhand
								{
									OFFSET 0 0 0
CHANNELS 3 Zrotation Xrotation Yrotation
									JOINT RFingers
									{
OFFSET 0 -0.507760 0.000000
CHANNELS 3 Zrotation Xrotation Yrotation
										End Site
										{
OFFSET 0 -0.409370 0.000000
										}
									}
								}
								JOINT RThumb
								{
OFFSET 0 0.000000 0.000000
CHANNELS 3 Zrotation Xrotation Yrotation
									End Site
									{
OFFSET 0 -0.415620 0.415620
									}
								}
							}
						}
					}
				}
			}
		}
	}
}
MOTION
Frames: 4
Frame Time: 0.008333333333333333
9.305700 16.377900 8.765300 179.147000 -0.547600 -152.933000 0.000000 0.000000 0.000000 -15.683000 -19.134000 -22.277200 0.264200 3.307000 9.134500 0.196300 2.127100 -9.431900 5.126700 -13.525100 -41.367400 0.000000 0.000000 0.000000 13.659300 18.056500 -21.793000 -0.260900 -3.286200 9.076700 -1.235500 -1.236100 -21.484100 -2.211300 9.292900 -26.716000 -6.653200 -1.161000 -28.248600 -0.671700 -0.078200 -2.271700 2.967100 -0.710300 13.154400 -4.043600 0.118900 0.190700 6.896000 -0.682300 8.833700 2.966200 -0.438600 2.864800 -0.000000 0.000000 0.000000 4.337200 -2.573000 -18.705400 8.779300 -14.808000 1.143100 23.426600 7.897200 10.741300 0.000000 0.000000 0.000000 -7.125000 0.000000 0.000000 -2.569300 18.305800 -1.633900 -0.000000 0.000000 0.000000 2.368200 1.919400 8.253400 -14.540500 -23.502200 -3.040300 -17.338300 18.251600 49.388900 0.000000 0.000000 0.000000 7.125000 0.000000 -0.000000 50.034700 76.330200 -38.609200
9.305384 16.377821 8.765300 179.136735 -0.565999 -152.947214 0.000000 0.000000 0.000000 -15.705584 -19.137632 -22.261328 0.263884 3.305026 9.129051 0.197406 2.106490 -9.442244 5.114697 -13.511755 -41.315757 0.000000 0.000000 0.000000 13.683305 17.942554 -21.756360 -0.256320 -3.257536 8.996630 -1.234710 -1.205304 -21.465543 -2.304479 9.472782 -27.286285 -6.656201 -1.164790 -28.210539 -0.671542 -0.085781 -2.280702 2.966310 -0.712827 13.124314 -4.064921 0.121980 0.153508 6.892526 -0.675430 8.845387 2.969674 -0.434731 2.875460 0.000000 0.000000 0.000000 4.350071 -2.566841 -18.767782 8.786407 -14.819371 1.144916 23.460318 7.885039 10.605875 0.000000 0.000000 0.000000 -7.125000 0.000000 0.000000 -2.539767 18.449279 -1.607131 0.000000 0.000000 0.000000 2.367173 1.919874 8.255690 -14.572007 -23.546578 -3.052934 -17.485964 18.423033 49.805124 0.000000 0.000000 0.000000 7.125000 0.000000 0.000000 51.450541 76.602708 -40.062155
9.305184 16.378206 8.764663 179.110828 -0.579358 -152.957372 0.000000 0.000000 0.000000 -15.749254 -19.122438 -22.250090 0.263974 3.305485 9.130381 0.198279 2.071340 -9.437701 5.113991 -13.511039 -41.312891 0.000000 0.000000 0.000000 13.672031 17.898934 -21.745673 -0.256722 -3.260096 9.003802 -1.240641 -1.130654 -21.486031 -2.341987 9.544799 -27.514841 -6.673047 -1.164699 -28.187771 -0.684766 -0.082760 -2.292658 2.961929 -0.711646 13.097531 -4.068630 0.121178 0.142210 6.891137 -0.675743 8.849137 2.970079 -0.434627 2.878879 0.000000 0.000000 0.000000 4.378815 -2.527893 -18.912773 8.805795 -14.850380 1.149861 23.490444 7.789112 10.507757 0.000000 0.000000 0.000000 -7.125000 0.000000 0.000000 -2.514463 18.552845 -1.585344 0.000000 0.000000 0.000000 2.382947 1.931180 8.248595 -14.598474 -23.583773 -3.063483 -17.667692 18.615205 50.188618 0.000000 0.000000 0.000000 7.125000 0.000000 0.000000 52.772305 76.864325 -41.438411
9.305174 16.378795 8.764311 179.082194 -0.586791 -152.963845 0.000000 0.000000 0.000000 -15.795933 -19.100517 -22.235407 0.263251 3.300850 9.117458 0.197667 2.035743 -9.402183 5.134727 -13.533909 -41.401489 0.000000 0.000000 0.000000 13.643409 17.886238 -21.728840 -0.256129 -3.256284 8.993176 -1.241484 -1.075279 -21.471073 -2.324673 9.511680 -27.409528 -6.694403 -1.164011 -28.172992 -0.703697 -0.076517 -2.303511 2.954694 -0.709378 13.075968 -4.068823 0.120295 0.139982 6.889472 -0.676488 8.849010 2.969552 -0.434894 2.879300 0.000000 0.000000 0.000000 4.408822 -2.486300 -19.031421 8.819385 -14.872139 1.153321 23.500155 7.701914 10.511327 0.000000 0.000000 0.000000 -7.125000 0.000000 0.000000 -2.507814 18.548168 -1.581378 0.000000 0.000000 0.000000 2.413638 1.942989 8.224848 -14.624735 -23.620684 -3.073976 -17.635844 18.601729 50.212641 0.000000 0.000000 0.000000 7.125000 0.000000 0.000000 52.888755 76.863281 -41.537373
